PathFileType	4	(X/Y/Z)	G:\Shared drives\HPL_Drive\Nord Sprinting Study\Kristen_Nord_test\Trimmed_Nord000006.trc
DataRate	CameraRate	NumFrames	NumMarkers	Units	OrigDataRate	OrigDataStartFrame	OrigNumFrames
200.00	200.00	      7	52	mm	200.00	1788	      2043
Frame#	Time	C7			R_Shoulder			L_Shoulder			Sternum			R_humerus			R_elbow_med			R_elbow_lat			R_forearm			R_wrist_radius			R_wrist_ulna			L_humerus			L_elbow_med			L_elbow_lat			L_forearm			L_wrist_radius			L_wrist_ulna			r.ASIS			r.PSIS			r_IC			L.ASIS			L.PSIS			l_IC			r_thigh1			r_thigh2			r_thigh3			r_thigh4			r_thigh5			r_knee			r_mknee			r_shank_antsup			r_sh2			r_sh3			r_sh4			r_ankle			r_mankle			r_calc			r_5meta			r_toe			L_thigh1			L_thigh2			L_thigh3			L_thigh4			L_knee			L_mknee			L_shank_antsup			L_sh2			L_sh3			L_ankle			L_mankle			L_calc			L_5meta			L_toe			
		X1	Y1	Z1	X2	Y2	Z2	X3	Y3	Z3	X4	Y4	Z4	X5	Y5	Z5	X6	Y6	Z6	X7	Y7	Z7	X8	Y8	Z8	X9	Y9	Z9	X10	Y10	Z10	X11	Y11	Z11	X12	Y12	Z12	X13	Y13	Z13	X14	Y14	Z14	X15	Y15	Z15	X16	Y16	Z16	X17	Y17	Z17	X18	Y18	Z18	X19	Y19	Z19	X20	Y20	Z20	X21	Y21	Z21	X22	Y22	Z22	X23	Y23	Z23	X24	Y24	Z24	X25	Y25	Z25	X26	Y26	Z26	X27	Y27	Z27	X28	Y28	Z28	X29	Y29	Z29	X30	Y30	Z30	X31	Y31	Z31	X32	Y32	Z32	X33	Y33	Z33	X34	Y34	Z34	X35	Y35	Z35	X36	Y36	Z36	X37	Y37	Z37	X38	Y38	Z38	X39	Y39	Z39	X40	Y40	Z40	X41	Y41	Z41	X42	Y42	Z42	X43	Y43	Z43	X44	Y44	Z44	X45	Y45	Z45	X46	Y46	Z46	X47	Y47	Z47	X48	Y48	Z48	X49	Y49	Z49	X50	Y50	Z50	X51	Y51	Z51	X52	Y52	Z52	

1788	8.935	1196.06189	930.01282	1053.99768	1324.06531	953.37726	1037.84534	1065.18713	974.98663	1037.55542	1201.29114	1018.96289	945.80542	1462.69348	837.13666	1035.30469	1563.07556	744.25854	957.10114	1542.19580	724.12109	1031.11145	1597.61487	826.22260	1088.97327	1627.62280	938.77570	1105.04883	1661.46411	911.27594	1126.09094	883.64355	877.63403	1016.34283	786.50262	834.32623	920.94165	790.17950	796.93073	990.30621	785.32837	927.77783	1064.24634	804.67065	1022.52356	1086.52087	755.11542	1013.84125	1098.78491	1325.77563	695.36292	602.39410	1267.71167	647.53101	782.78864	1356.47705	726.24805	707.71149	1093.43738	692.48712	588.69220	1151.83459	648.18555	773.64484	1060.65515	728.59369	679.45825	1384.91895	516.20844	451.38635	1381.93420	443.05786	362.80429	1390.55859	390.52921	369.20670	1392.37122	436.37921	522.09851	1378.05322	362.44324	430.58194	1380.45190	347.41104	311.67703	1256.94299	338.11151	317.99612	1402.38330	211.46124	318.04239	1384.40015	93.65506	330.13120	1403.31628	217.64192	393.46393	1384.99915	104.43155	411.12045	1369.61243	-68.17931	384.06528	1293.05261	-51.90778	349.54758	1308.57678	-85.11889	440.92004	1378.20447	-157.50087	294.40060	1346.29626	-134.98618	239.77347	1030.73389	525.76257	438.53876	1033.05176	436.91946	329.14343	1018.83466	438.19632	519.81531	1028.03540	353.41992	411.75424	1018.74017	338.96841	323.56891	1145.57129	331.44821	304.27695	1001.35883	223.76952	312.18872	996.24811	238.19951	402.45914	1003.63721	116.85275	412.27695	1008.68610	-63.64845	383.62369	1088.23181	-47.57594	361.73892	1054.66162	-57.69221	443.85867	1019.12268	-172.61151	303.51755	1068.48096	-160.34430	253.32596	
1789	8.940	1196.22058	930.43463	1053.67004	1324.22791	953.73047	1037.45886	1065.33081	975.45319	1037.17407	1201.42444	1019.29584	945.40533	1462.79163	837.39685	1034.96619	1563.03381	744.31116	956.69727	1542.16223	724.36102	1030.91431	1597.78284	826.49402	1088.52429	1627.91541	939.00092	1104.45728	1661.70361	911.48041	1125.49402	883.79022	878.02008	1016.01172	786.65735	834.66553	920.63623	790.34930	797.30542	990.02441	785.47955	928.28394	1063.76697	804.74188	1023.05530	1086.13062	755.15796	1014.31854	1098.29688	1325.83093	695.35974	602.27191	1267.71033	647.71143	782.73962	1356.48975	726.31873	707.61707	1093.46484	692.56146	588.47302	1151.83167	648.36487	773.51312	1060.66907	728.75006	679.30145	1384.92725	516.30383	451.37357	1382.09290	443.12125	362.77023	1390.53491	390.56158	369.16095	1392.35010	436.38632	522.07501	1377.98108	362.50424	430.51242	1380.43970	347.45993	311.67938	1256.81689	338.12698	318.00171	1402.36414	211.54060	318.01920	1384.40527	93.72956	330.17218	1403.26636	217.69850	393.46283	1384.91321	104.50702	411.11880	1369.63562	-68.11828	384.00140	1292.96753	-51.82912	349.61420	1308.61548	-85.01360	440.90906	1378.37805	-156.85567	294.64731	1346.33643	-134.91281	239.71164	1030.88892	525.88440	438.52600	1033.19043	437.02603	329.29810	1018.83264	438.32556	519.75543	1028.04065	353.46191	411.72989	1018.73401	338.98660	323.57703	1145.59802	331.45480	304.27026	1001.33203	223.77675	312.18848	995.83380	238.67314	402.54562	1003.53918	116.91230	412.26117	1008.55212	-63.61106	383.60184	1088.12097	-47.56501	361.74701	1054.09680	-57.95080	443.54694	1018.38348	-172.64438	303.48486	1068.39600	-160.34618	253.41917	
1790	8.945	1196.41614	930.75079	1053.13586	1324.38452	954.04840	1037.04089	1065.51074	975.85040	1036.71069	1201.57947	1019.58795	944.96472	1462.91418	837.64917	1034.57361	1563.09961	744.45062	956.37354	1542.23975	724.55164	1030.61096	1597.98718	826.75879	1088.08252	1628.17456	939.20209	1103.96533	1662.02747	911.70422	1124.88794	883.99719	878.42865	1015.63898	786.78931	834.95294	920.40460	790.53125	797.72052	989.68243	785.56177	928.77246	1063.37488	804.83020	1023.57678	1085.54114	755.19067	1014.87036	1097.73547	1325.79517	695.32312	602.15063	1267.74854	647.87860	782.63055	1356.53491	726.37671	707.40637	1093.50024	692.68542	588.30853	1151.87805	648.56512	773.36877	1060.70398	728.88422	679.13135	1384.89819	516.30884	451.30405	1382.04541	443.12897	362.79550	1390.57019	390.64218	369.10110	1392.36023	436.44717	522.01263	1377.89343	362.56528	430.47424	1380.50049	347.47473	311.56796	1256.68799	338.14218	317.98404	1402.33350	211.62851	318.00430	1384.36267	93.80984	330.15271	1403.19006	217.79848	393.45911	1384.85840	104.61071	411.12985	1369.64600	-67.94195	383.98209	1292.94666	-51.76977	349.58978	1308.61316	-84.85012	440.91824	1377.84155	-157.30109	294.27991	1346.44360	-134.85583	239.61304	1030.92578	525.95734	438.48004	1033.26770	437.06146	329.35101	1018.75104	438.41711	519.67981	1028.01294	353.53601	411.71356	1018.75421	339.01288	323.58795	1145.61340	331.47205	304.27127	1001.04230	223.54337	312.14523	996.16119	238.22340	402.43414	1003.50049	116.86517	412.20764	1008.39557	-63.59381	383.58453	1088.00037	-47.57401	361.74646	1053.95166	-57.89478	443.50958	1018.72943	-172.69798	303.50616	1067.95471	-160.67218	253.28125	
1791	8.950	1196.53967	931.26782	1052.87695	1324.57385	954.39520	1036.58032	1065.66956	976.33667	1036.31323	1201.76440	1019.93036	944.51160	1463.05884	837.94965	1034.16406	1563.11060	744.60895	956.04987	1542.32324	724.79803	1030.30676	1598.23633	827.01599	1087.63574	1628.49731	939.44885	1103.38684	1662.32373	911.94623	1124.37207	884.19092	878.86389	1015.29364	786.92786	835.26392	920.10773	790.68976	798.10144	989.33704	785.75555	929.25946	1062.91492	804.89990	1024.12439	1084.86206	755.33582	1015.36584	1097.13953	1325.90857	695.33832	602.01758	1267.80359	648.04425	782.49670	1356.59717	726.44714	707.22131	1093.56335	692.73590	588.13745	1151.92065	648.77979	773.22040	1060.73120	729.06500	678.97455	1384.88135	516.35767	451.35190	1382.01111	443.17487	362.73990	1390.56384	390.62686	369.09576	1392.35718	436.47089	521.79865	1377.73816	362.64722	430.46652	1380.59167	347.55215	311.45340	1256.55310	338.18213	317.98413	1402.34729	211.72549	318.00916	1384.37146	93.91528	330.11548	1403.14014	217.96053	393.43906	1384.80676	104.67442	411.13766	1369.68140	-67.79720	383.86951	1292.95447	-51.64808	349.55658	1308.65063	-84.66731	440.85507	1377.87134	-157.19994	294.17816	1346.50110	-134.83856	239.47148	1030.65613	525.83295	437.71844	1033.29309	437.01797	329.29514	1018.45795	438.20450	518.78754	1027.99902	353.56973	411.72809	1018.98309	339.11621	323.35635	1145.61365	331.45908	304.26492	1001.26300	223.77843	312.21735	996.11646	238.25482	402.36670	1003.32239	117.00084	412.19485	1008.22662	-63.56337	383.59195	1087.89990	-47.58151	361.64499	1054.14258	-57.60651	443.80246	1018.06543	-172.60890	303.59625	1068.10815	-160.35608	253.51268	
1792	8.955	1196.71887	931.71149	1052.18469	1324.72620	954.76495	1036.16626	1065.90051	976.84589	1035.82263	1201.98560	1020.24573	943.99921	1463.19043	838.23212	1033.75720	1563.27979	744.89563	955.94629	1542.38953	725.02301	1029.99951	1598.44116	827.26935	1087.21082	1628.82056	939.69580	1102.89001	1662.66284	912.14227	1123.83020	884.38336	879.31915	1014.94550	787.14435	835.65997	919.73383	790.87238	798.51825	988.98969	785.90527	929.76361	1062.35901	805.01996	1024.67908	1084.19897	755.50092	1015.93719	1096.56860	1325.93665	695.34161	601.87585	1267.68762	648.28485	782.28558	1356.64124	726.52850	707.02472	1093.55347	692.81915	588.07770	1152.02600	648.93842	773.03723	1060.75122	729.21149	678.82550	1384.79688	516.42133	451.27612	1381.99548	443.25812	362.72168	1390.56348	390.75931	368.98154	1392.33862	436.49335	521.71918	1377.66748	362.74954	430.36676	1380.68469	347.58957	311.30331	1256.42407	338.22269	317.96387	1402.30371	211.65407	317.98642	1384.33447	94.03991	330.10480	1403.08789	218.09134	393.43063	1384.74548	104.83842	411.12732	1369.71326	-67.61169	383.82245	1292.95667	-51.53500	349.48782	1308.72534	-84.47366	440.78107	1377.86560	-157.08247	294.08075	1346.60242	-134.74663	239.41615	1030.67200	525.90796	437.69067	1033.34961	437.08014	329.26477	1018.40399	438.27637	518.71375	1027.99097	353.61307	411.71152	1018.78528	339.05112	323.54913	1145.63025	331.47922	304.24222	1001.22961	223.91571	312.04846	995.99414	238.19519	402.46225	1003.23578	117.00747	412.16287	1008.05774	-63.53310	383.61880	1087.81079	-47.57476	361.50574	1054.01050	-57.55323	443.68451	1017.69897	-172.72107	303.54993	1067.68433	-160.70631	253.44179	
1793	8.960	1196.97900	932.12128	1051.75940	1324.93213	955.12842	1035.70447	1066.10925	977.28833	1035.32556	1202.16602	1020.57983	943.51984	1463.32849	838.52893	1033.35400	1563.31873	745.03687	955.60364	1542.45654	725.25189	1029.72180	1598.65393	827.50397	1086.73657	1629.13013	939.89459	1102.45532	1663.15295	912.40021	1123.32959	884.58160	879.83331	1014.55914	787.22339	835.96313	919.50824	791.10315	798.92096	988.67072	785.99805	930.28723	1061.84045	805.14972	1025.25647	1083.59436	755.65955	1016.43231	1095.95117	1325.96436	695.30640	601.74646	1267.73328	648.49323	782.14020	1356.67969	726.58997	706.78491	1093.54346	692.86945	587.89844	1152.14368	649.14502	772.82019	1061.05591	729.40295	678.58936	1384.77795	516.47321	451.27509	1381.93030	443.37704	362.66910	1390.56323	390.82706	368.88611	1392.30359	436.52493	521.66193	1377.66858	362.85983	430.21829	1380.82678	347.66580	311.08096	1256.25806	338.25208	317.97864	1402.31189	211.80710	317.94867	1384.30505	94.20695	330.03702	1403.03210	218.26613	393.35706	1384.68420	104.97920	411.08676	1369.71008	-67.40491	383.72534	1292.93127	-51.40825	349.58197	1308.77795	-84.22585	440.71155	1377.98157	-156.93567	294.01883	1346.68042	-134.63278	239.28413	1030.68738	525.98810	437.71454	1033.36694	437.13339	329.24667	1018.37378	438.36401	518.70685	1027.96960	353.62808	411.71375	1018.78717	339.04099	323.59055	1145.62756	331.49557	304.23874	1001.18469	223.93430	312.16336	995.90051	238.22882	402.46674	1003.15222	117.02933	412.11438	1007.83344	-63.51892	383.63272	1087.68713	-47.57503	361.39011	1053.89246	-57.49150	443.59979	1017.67603	-172.57686	303.64206	1067.82532	-160.39487	253.66415	
1794	8.965	1197.23804	932.41510	1051.45227	1325.18408	955.48950	1035.21375	1066.28625	977.76678	1034.90015	1202.35046	1020.92236	943.07135	1463.47632	838.78790	1032.97632	1563.38745	745.19055	955.21820	1542.54199	725.45453	1029.40845	1598.85425	827.72284	1086.29321	1629.44116	940.07764	1101.97534	1663.42883	912.61639	1122.65942	884.80060	880.32568	1014.14545	787.36621	836.32166	919.18671	791.30676	799.36731	988.34229	786.11865	930.84277	1061.30872	805.26575	1025.80225	1083.12817	755.82428	1016.98816	1095.24829	1325.96741	695.29132	601.57513	1267.89111	648.56006	782.10785	1356.72571	726.62952	706.55774	1093.53198	692.91174	587.81720	1152.20837	649.33990	772.59229	1061.08105	729.56787	678.45178	1384.82361	516.53888	451.24884	1381.89355	443.47675	362.59467	1390.59814	390.93738	368.77136	1392.28430	436.53989	521.59583	1377.55750	362.98022	430.17438	1380.95374	347.75894	310.88071	1256.11621	338.31940	317.92627	1402.29297	211.91605	317.82339	1384.31641	94.31075	330.04086	1402.99561	218.44785	393.30209	1384.65662	105.21124	411.02899	1369.76514	-67.20010	383.59607	1292.92456	-51.21958	349.56024	1308.84802	-83.97440	440.64371	1378.01440	-156.81357	293.92877	1347.18323	-134.49315	239.38023	1030.68982	526.01489	437.72986	1033.36877	437.16739	329.20135	1018.32574	438.37338	518.66364	1027.92529	353.67371	411.68253	1018.79755	339.05835	323.57535	1145.65540	331.53662	304.22815	1001.36835	223.48904	311.88004	995.92334	238.35495	402.35803	1003.06250	117.06845	412.06644	1007.64020	-63.45895	383.61588	1087.58618	-47.51931	361.24820	1053.34058	-57.76730	443.28214	1018.27600	-172.79480	303.09753	1066.07434	-160.03061	254.65256	
